<svg width="28" height="20" viewBox="0 0 28 20" fill="none" xmlns="http://www.w3.org/2000/svg">
<path d="M27 7.87109H23.625V4.43203C23.625 3.89619 23.1781 3.46328 22.625 3.46328H12.7812L9.11563 0.0666015C9.06898 0.0243028 9.00764 0.000530683 8.94375 0H1C0.446875 0 0 0.43291 0 0.96875V18.8906C0 19.4265 0.446875 19.8594 1 19.8594H22.8125C23.2188 19.8594 23.5875 19.6202 23.7406 19.2539L27.9281 9.20312C27.975 9.08809 28 8.96396 28 8.83984C28 8.304 27.5531 7.87109 27 7.87109ZM21.375 7.87109H5.4375C5.03125 7.87109 4.6625 8.11025 4.50938 8.47656L2.25 13.9016V2.17969H8.14062L11.8781 5.64297H21.375V7.87109Z" fill="#F8F1F1"/>
</svg>
